<svg xmlns="http://www.w3.org/2000/svg" xmlns:xlink="http://www.w3.org/1999/xlink" width="500" zoomAndPan="magnify" viewBox="0 0 375 374.999991" height="500" preserveAspectRatio="xMidYMid meet" version="1.0"><defs><g/><clipPath id="1e040aeed7"><path d="M 0 194.238281 L 364.246094 194.238281 L 364.246094 221.988281 L 0 221.988281 Z M 0 194.238281 " clip-rule="nonzero"/></clipPath><clipPath id="dc28ae1ca2"><path d="M 184.640625 76.191406 L 188.9375 76.191406 L 188.9375 79.835938 L 184.640625 79.835938 Z M 184.640625 76.191406 " clip-rule="nonzero"/></clipPath><clipPath id="b15925ecb9"><path d="M 188.925781 77.476562 C 186.976562 80.476562 185.175781 79.949219 184.800781 79.351562 C 184.425781 78.675781 184.800781 76.875 185.398438 76.351562 C 185.925781 75.898438 188.324219 76.574219 188.324219 76.574219 " clip-rule="nonzero"/></clipPath><clipPath id="b43cf2a1df"><path d="M 252.816406 189.964844 L 257.113281 189.964844 L 257.113281 193.574219 L 252.816406 193.574219 Z M 252.816406 189.964844 " clip-rule="nonzero"/></clipPath><clipPath id="7dc5cd4cf5"><path d="M 257.101562 191.25 C 255.148438 194.25 253.425781 193.726562 252.976562 193.050781 C 252.601562 192.449219 252.976562 190.574219 253.574219 190.125 C 254.101562 189.675781 256.5 190.351562 256.5 190.351562 " clip-rule="nonzero"/></clipPath><clipPath id="97dbeba31b"><path d="M 248.804688 187.53125 L 264.984375 187.53125 L 264.984375 194.996094 L 248.804688 194.996094 Z M 248.804688 187.53125 " clip-rule="nonzero"/></clipPath><clipPath id="64caf4b2bb"><path d="M 262.050781 192.300781 C 249.226562 192 248.773438 190.800781 248.851562 190.050781 C 248.925781 189.300781 249.75 188.324219 250.726562 187.949219 C 252.375 187.351562 257.324219 188.175781 259.050781 189.148438 C 260.023438 189.675781 260.699219 190.574219 260.851562 191.25 C 261 191.851562 260.699219 192.523438 260.398438 192.976562 C 260.101562 193.425781 259.648438 193.726562 258.898438 193.949219 C 257.398438 194.398438 252.300781 194.699219 251.023438 193.800781 C 250.351562 193.351562 250.125 192.300781 250.125 191.625 C 250.199219 190.949219 250.574219 190.050781 251.398438 189.675781 C 253.351562 188.625 261.226562 189 263.25 189.976562 C 264.148438 190.351562 264.675781 190.949219 264.898438 191.625 C 265.050781 192.300781 264.824219 193.425781 264.375 193.949219 C 263.925781 194.476562 262.875 194.925781 262.199219 194.851562 C 261.523438 194.773438 260.550781 194.101562 260.25 193.5 C 259.949219 192.898438 259.949219 191.773438 260.25 191.175781 C 260.550781 190.5 261.523438 189.824219 262.199219 189.824219 C 263.023438 189.824219 264.449219 190.648438 264.824219 191.398438 C 265.125 192 264.898438 193.125 264.523438 193.726562 C 264.300781 194.175781 263.925781 194.476562 263.25 194.699219 C 261.976562 195.148438 258.75 194.925781 256.648438 194.773438 C 254.699219 194.625 252.074219 194.699219 251.023438 193.800781 C 250.351562 193.125 249.976562 191.773438 250.273438 191.023438 C 250.574219 190.199219 251.925781 189.375 253.125 189 C 254.773438 188.550781 258.300781 188.625 259.574219 189.375 C 260.324219 189.75 260.773438 190.574219 260.851562 191.25 C 260.925781 191.925781 260.625 192.976562 259.949219 193.425781 C 258.976562 194.101562 255.824219 193.726562 254.101562 193.5 C 252.601562 193.351562 251.023438 193.050781 250.125 192.523438 C 249.601562 192.148438 249.226562 191.699219 249 191.175781 C 248.773438 190.726562 248.773438 189.976562 249 189.449219 C 249.226562 189 249.523438 188.476562 250.125 188.175781 C 251.476562 187.5 255.148438 187.574219 257.550781 187.574219 C 259.648438 187.574219 262.574219 187.351562 263.625 188.175781 C 264.300781 188.773438 264.523438 190.050781 264.226562 190.800781 C 264 191.476562 262.050781 192.300781 262.050781 192.300781 " clip-rule="nonzero"/></clipPath></defs><g fill="#f4f4f4" fill-opacity="1"><g transform="translate(186.078962, 256.42951)"><g><path d="M 7.648438 0 L 81.601562 0 L 82.800781 -19.949219 L 81.148438 -20.25 C 75.75 -6.300781 66.601562 -2.25 52.199219 -2.25 L 32.699219 -2.25 C 28.351562 -2.25 25.949219 -4.648438 25.949219 -9 L 25.949219 -55.050781 L 45.148438 -55.050781 C 62.25 -55.050781 66.601562 -51.601562 68.398438 -44.851562 L 70.199219 -44.851562 L 70.199219 -67.5 L 68.398438 -67.5 C 66.601562 -60.75 62.25 -57.300781 45.148438 -57.300781 L 25.949219 -57.300781 L 25.949219 -102.75 L 48 -102.75 C 63.300781 -102.75 72.148438 -98.25 77.398438 -85.050781 L 79.050781 -85.5 L 77.398438 -105 L 7.648438 -105 L 7.648438 -103.050781 C 12.148438 -101.699219 13.648438 -98.25 13.648438 -85.949219 L 13.648438 -19.050781 C 13.648438 -6.75 12.148438 -3.300781 7.648438 -1.949219 Z M 7.648438 0 "/></g></g></g><g fill="#f4f4f4" fill-opacity="1"><g transform="translate(96.656292, 256.42951)"><g><path d="M -2.550781 0 L 14.398438 0 L 14.398438 -1.949219 C 9.300781 -3 8.699219 -7.949219 12.601562 -17.699219 L 21.449219 -39.601562 L 63.75 -39.601562 L 72.898438 -17.550781 C 77.699219 -6.300781 78.898438 -3.300781 74.25 -1.949219 L 74.25 0 L 97.5 0 L 97.5 -1.949219 C 94.351562 -3.300781 90.75 -6.300781 86.101562 -17.550781 L 49.199219 -106.199219 L 37.949219 -101.101562 L 39.300781 -97.949219 C 40.5 -95.550781 40.648438 -93.601562 39.601562 -90.898438 L 10.050781 -17.699219 C 5.398438 -6.300781 1.648438 -3.300781 -2.550781 -1.949219 Z M 22.351562 -41.851562 L 42.300781 -91.199219 L 62.851562 -41.851562 Z M 22.351562 -41.851562 "/></g></g></g><g clip-path="url(#1e040aeed7)"><path fill="#121212" d="M -26.503906 221.988281 L -26.503906 194.238281 L 364.246094 194.238281 L 364.246094 221.988281 Z M -26.503906 221.988281 " fill-opacity="1" fill-rule="nonzero"/></g><g fill="#f4f4f4" fill-opacity="1"><g transform="translate(84.125245, 213.561022)"><g><path d="M -0.425781 0 L 1.921875 0 L 1.921875 -0.285156 C 1.234375 -0.445312 1.113281 -1.03125 1.660156 -2.390625 L 2.835938 -5.285156 L 8.242188 -5.285156 L 9.457031 -2.371094 C 10.023438 -1.03125 10.308594 -0.507812 9.640625 -0.285156 L 9.640625 0 L 13.324219 0 L 13.324219 -0.285156 C 12.859375 -0.507812 12.332031 -1.03125 11.765625 -2.371094 L 6.742188 -14.335938 L 4.757812 -13.445312 L 5.023438 -12.878906 C 5.203125 -12.515625 5.222656 -12.191406 5.0625 -11.785156 L 1.277344 -2.390625 C 0.730469 -1.03125 0.183594 -0.507812 -0.425781 -0.285156 Z M 2.957031 -5.609375 L 5.488281 -11.867188 L 8.101562 -5.609375 Z M 2.957031 -5.609375 "/></g></g></g><g fill="#f4f4f4" fill-opacity="1"><g transform="translate(100.326298, 213.561022)"><g><path d="M 0.953125 0 L 10.589844 0 L 10.753906 -2.550781 L 10.488281 -2.59375 C 9.679688 -0.851562 8.625 -0.363281 6.582031 -0.363281 L 4.921875 -0.363281 C 4.273438 -0.363281 3.910156 -0.730469 3.910156 -1.378906 L 3.910156 -11.601562 C 3.910156 -13.0625 4.050781 -13.667969 4.71875 -13.890625 L 4.71875 -14.175781 L 0.953125 -14.175781 L 0.953125 -13.890625 C 1.621094 -13.667969 1.761719 -13.0625 1.761719 -11.601562 L 1.761719 -2.570312 C 1.761719 -1.113281 1.621094 -0.507812 0.953125 -0.285156 Z M 0.953125 0 "/></g></g></g><g fill="#f4f4f4" fill-opacity="1"><g transform="translate(114.623856, 213.561022)"><g><path d="M 0.953125 0 L 4.71875 0 L 4.71875 -0.285156 C 4.050781 -0.507812 3.910156 -1.113281 3.910156 -2.570312 L 3.910156 -11.601562 C 3.910156 -13.0625 4.050781 -13.667969 4.71875 -13.890625 L 4.71875 -14.175781 L 0.953125 -14.175781 L 0.953125 -13.890625 C 1.621094 -13.667969 1.761719 -13.0625 1.761719 -11.601562 L 1.761719 -2.570312 C 1.761719 -1.113281 1.621094 -0.507812 0.953125 -0.285156 Z M 0.953125 0 "/></g></g></g><g fill="#f4f4f4" fill-opacity="1"><g transform="translate(123.474176, 213.561022)"><g/></g></g><g fill="#f4f4f4" fill-opacity="1"><g transform="translate(130.704504, 213.561022)"><g><path d="M 0.953125 0 L 4.71875 0 L 4.71875 -0.285156 C 4.050781 -0.507812 3.910156 -1.113281 3.910156 -2.570312 L 3.910156 -7.332031 L 10.957031 -7.332031 L 10.957031 -2.570312 C 10.957031 -1.113281 10.8125 -0.507812 10.144531 -0.285156 L 10.144531 0 L 13.910156 0 L 13.910156 -0.285156 C 13.242188 -0.507812 13.101562 -1.113281 13.101562 -2.570312 L 13.101562 -11.601562 C 13.101562 -13.0625 13.242188 -13.667969 13.910156 -13.890625 L 13.910156 -14.175781 L 10.144531 -14.175781 L 10.144531 -13.890625 C 10.8125 -13.667969 10.957031 -13.0625 10.957031 -11.601562 L 10.957031 -7.695312 L 3.910156 -7.695312 L 3.910156 -11.601562 C 3.910156 -13.0625 4.050781 -13.667969 4.71875 -13.890625 L 4.71875 -14.175781 L 0.953125 -14.175781 L 0.953125 -13.890625 C 1.621094 -13.667969 1.761719 -13.0625 1.761719 -11.601562 L 1.761719 -2.570312 C 1.761719 -1.113281 1.621094 -0.507812 0.953125 -0.285156 Z M 0.953125 0 "/></g></g></g><g fill="#f4f4f4" fill-opacity="1"><g transform="translate(148.748311, 213.561022)"><g><path d="M -0.425781 0 L 1.921875 0 L 1.921875 -0.285156 C 1.234375 -0.445312 1.113281 -1.03125 1.660156 -2.390625 L 2.835938 -5.285156 L 8.242188 -5.285156 L 9.457031 -2.371094 C 10.023438 -1.03125 10.308594 -0.507812 9.640625 -0.285156 L 9.640625 0 L 13.324219 0 L 13.324219 -0.285156 C 12.859375 -0.507812 12.332031 -1.03125 11.765625 -2.371094 L 6.742188 -14.335938 L 4.757812 -13.445312 L 5.023438 -12.878906 C 5.203125 -12.515625 5.222656 -12.191406 5.0625 -11.785156 L 1.277344 -2.390625 C 0.730469 -1.03125 0.183594 -0.507812 -0.425781 -0.285156 Z M 2.957031 -5.609375 L 5.488281 -11.867188 L 8.101562 -5.609375 Z M 2.957031 -5.609375 "/></g></g></g><g fill="#f4f4f4" fill-opacity="1"><g transform="translate(164.949367, 213.561022)"><g><path d="M 0.953125 0 L 6.460938 0 C 10.914062 0 13.789062 -2.976562 13.769531 -7.371094 C 13.75 -10.347656 11.847656 -14.175781 6.015625 -14.175781 L 0.953125 -14.175781 L 0.953125 -13.890625 C 1.621094 -13.667969 1.761719 -13.0625 1.761719 -11.601562 L 1.761719 -2.570312 C 1.761719 -1.113281 1.621094 -0.507812 0.953125 -0.285156 Z M 3.910156 -1.800781 L 3.910156 -13.851562 L 4.71875 -13.851562 C 9.234375 -13.851562 11.378906 -10.53125 11.378906 -6.378906 C 11.378906 -2.046875 9.578125 -0.324219 6.316406 -0.324219 L 5.222656 -0.324219 C 4.109375 -0.324219 3.910156 -0.851562 3.910156 -1.800781 Z M 3.910156 -1.800781 "/></g></g></g><g fill="#f4f4f4" fill-opacity="1"><g transform="translate(182.932429, 213.561022)"><g><path d="M 0.953125 0 L 4.71875 0 L 4.71875 -0.285156 C 4.050781 -0.507812 3.910156 -1.113281 3.910156 -2.570312 L 3.910156 -11.601562 C 3.910156 -13.0625 4.050781 -13.667969 4.71875 -13.890625 L 4.71875 -14.175781 L 0.953125 -14.175781 L 0.953125 -13.890625 C 1.621094 -13.667969 1.761719 -13.0625 1.761719 -11.601562 L 1.761719 -2.570312 C 1.761719 -1.113281 1.621094 -0.507812 0.953125 -0.285156 Z M 0.953125 0 "/></g></g></g><g fill="#f4f4f4" fill-opacity="1"><g transform="translate(191.782751, 213.561022)"><g/></g></g><g fill="#f4f4f4" fill-opacity="1"><g transform="translate(199.013082, 213.561022)"><g><path d="M 0.953125 0 L 11.199219 0 L 11.339844 -2.957031 L 11.078125 -2.996094 C 10.308594 -0.929688 8.910156 -0.324219 6.863281 -0.324219 L 4.921875 -0.324219 C 4.273438 -0.324219 3.910156 -0.6875 3.910156 -1.335938 L 3.910156 -7.453125 L 5.851562 -7.453125 C 8.324219 -7.453125 9.03125 -6.964844 9.355469 -5.914062 L 9.640625 -5.914062 L 9.640625 -9.316406 L 9.355469 -9.316406 C 9.03125 -8.261719 8.324219 -7.777344 5.851562 -7.777344 L 3.910156 -7.777344 L 3.910156 -13.851562 L 6.277344 -13.851562 C 8.546875 -13.851562 9.820312 -13.242188 10.632812 -11.257812 L 10.894531 -11.320312 L 10.671875 -14.175781 L 0.953125 -14.175781 L 0.953125 -13.890625 C 1.621094 -13.667969 1.761719 -13.0625 1.761719 -11.601562 L 1.761719 -2.570312 C 1.761719 -1.113281 1.621094 -0.507812 0.953125 -0.285156 Z M 0.953125 0 "/></g></g></g><g fill="#f4f4f4" fill-opacity="1"><g transform="translate(214.242146, 213.561022)"><g><path d="M 0.953125 0 L 10.589844 0 L 10.753906 -2.550781 L 10.488281 -2.59375 C 9.679688 -0.851562 8.625 -0.363281 6.582031 -0.363281 L 4.921875 -0.363281 C 4.273438 -0.363281 3.910156 -0.730469 3.910156 -1.378906 L 3.910156 -11.601562 C 3.910156 -13.0625 4.050781 -13.667969 4.71875 -13.890625 L 4.71875 -14.175781 L 0.953125 -14.175781 L 0.953125 -13.890625 C 1.621094 -13.667969 1.761719 -13.0625 1.761719 -11.601562 L 1.761719 -2.570312 C 1.761719 -1.113281 1.621094 -0.507812 0.953125 -0.285156 Z M 0.953125 0 "/></g></g></g><g fill="#f4f4f4" fill-opacity="1"><g transform="translate(228.539707, 213.561022)"><g><path d="M 8.910156 0.203125 C 11.378906 0.203125 12.917969 -0.285156 13.992188 -0.769531 L 14.316406 -3.664062 L 14.054688 -3.707031 C 13.324219 -1.601562 11.765625 -0.222656 9.496094 -0.222656 C 5.546875 -0.222656 3.238281 -3.847656 3.238281 -7.753906 C 3.238281 -11.785156 5.527344 -13.933594 8.769531 -13.933594 C 10.855469 -13.933594 12.941406 -12.675781 13.769531 -10.589844 L 14.011719 -10.652344 L 13.933594 -13.324219 C 12.878906 -14.035156 10.792969 -14.316406 9.292969 -14.316406 C 4.332031 -14.316406 1.09375 -10.933594 1.09375 -6.84375 C 1.09375 -2.308594 4.070312 0.203125 8.910156 0.203125 Z M 8.910156 0.203125 "/></g></g></g><g fill="#f4f4f4" fill-opacity="1"><g transform="translate(246.927763, 213.561022)"><g><path d="M 0.953125 0 L 4.71875 0 L 4.71875 -0.285156 C 4.050781 -0.507812 3.910156 -1.113281 3.910156 -2.570312 L 3.910156 -7.332031 L 10.957031 -7.332031 L 10.957031 -2.570312 C 10.957031 -1.113281 10.8125 -0.507812 10.144531 -0.285156 L 10.144531 0 L 13.910156 0 L 13.910156 -0.285156 C 13.242188 -0.507812 13.101562 -1.113281 13.101562 -2.570312 L 13.101562 -11.601562 C 13.101562 -13.0625 13.242188 -13.667969 13.910156 -13.890625 L 13.910156 -14.175781 L 10.144531 -14.175781 L 10.144531 -13.890625 C 10.8125 -13.667969 10.957031 -13.0625 10.957031 -11.601562 L 10.957031 -7.695312 L 3.910156 -7.695312 L 3.910156 -11.601562 C 3.910156 -13.0625 4.050781 -13.667969 4.71875 -13.890625 L 4.71875 -14.175781 L 0.953125 -14.175781 L 0.953125 -13.890625 C 1.621094 -13.667969 1.761719 -13.0625 1.761719 -11.601562 L 1.761719 -2.570312 C 1.761719 -1.113281 1.621094 -0.507812 0.953125 -0.285156 Z M 0.953125 0 "/></g></g></g><g fill="#f4f4f4" fill-opacity="1"><g transform="translate(264.97157, 213.561022)"><g><path d="M -0.425781 0 L 1.921875 0 L 1.921875 -0.285156 C 1.234375 -0.445312 1.113281 -1.03125 1.660156 -2.390625 L 2.835938 -5.285156 L 8.242188 -5.285156 L 9.457031 -2.371094 C 10.023438 -1.03125 10.308594 -0.507812 9.640625 -0.285156 L 9.640625 0 L 13.324219 0 L 13.324219 -0.285156 C 12.859375 -0.507812 12.332031 -1.03125 11.765625 -2.371094 L 6.742188 -14.335938 L 4.757812 -13.445312 L 5.023438 -12.878906 C 5.203125 -12.515625 5.222656 -12.191406 5.0625 -11.785156 L 1.277344 -2.390625 C 0.730469 -1.03125 0.183594 -0.507812 -0.425781 -0.285156 Z M 2.957031 -5.609375 L 5.488281 -11.867188 L 8.101562 -5.609375 Z M 2.957031 -5.609375 "/></g></g></g><g fill="#f4f4f4" fill-opacity="1"><g transform="translate(281.172627, 213.561022)"><g><path d="M 0.953125 0 L 5.347656 0 C 10.328125 0 12.171875 -2.390625 12.128906 -4.757812 C 12.109375 -6.785156 10.410156 -8.324219 7.066406 -8.425781 C 9.617188 -8.871094 10.488281 -10.125 10.488281 -11.503906 C 10.488281 -13.140625 9.273438 -14.175781 5.953125 -14.175781 L 0.953125 -14.175781 L 0.953125 -13.890625 C 1.621094 -13.667969 1.761719 -13.0625 1.761719 -11.601562 L 1.761719 -2.570312 C 1.761719 -1.113281 1.621094 -0.507812 0.953125 -0.285156 Z M 3.910156 -2.085938 L 3.910156 -8.160156 L 5.347656 -8.160156 C 8.363281 -8.160156 9.71875 -6.441406 9.71875 -4.007812 C 9.71875 -1.863281 8.445312 -0.324219 5.527344 -0.324219 L 4.960938 -0.324219 C 4.089844 -0.324219 3.910156 -0.628906 3.910156 -2.085938 Z M 3.910156 -8.484375 L 3.910156 -13.851562 L 4.738281 -13.851562 C 6.804688 -13.851562 8.078125 -12.816406 8.078125 -11.035156 C 8.078125 -9.617188 7.1875 -8.484375 5.710938 -8.484375 Z M 3.910156 -8.484375 "/></g></g></g><g clip-path="url(#dc28ae1ca2)"><g clip-path="url(#b15925ecb9)"><path fill="#121212" d="M 181.800781 73.351562 L 191.933594 73.351562 L 191.933594 83.175781 L 181.800781 83.175781 Z M 181.800781 73.351562 " fill-opacity="1" fill-rule="nonzero"/></g></g><g clip-path="url(#b43cf2a1df)"><g clip-path="url(#7dc5cd4cf5)"><path fill="#121212" d="M 249.976562 187.125 L 260.105469 187.125 L 260.105469 196.949219 L 249.976562 196.949219 Z M 249.976562 187.125 " fill-opacity="1" fill-rule="nonzero"/></g></g><g clip-path="url(#97dbeba31b)"><g clip-path="url(#64caf4b2bb)"><path fill="#121212" d="M 245.851562 184.574219 L 267.886719 184.574219 L 267.886719 197.851562 L 245.851562 197.851562 Z M 245.851562 184.574219 " fill-opacity="1" fill-rule="nonzero"/></g></g></svg>