<svg xmlns="http://www.w3.org/2000/svg" xmlns:xlink="http://www.w3.org/1999/xlink" width="481" zoomAndPan="magnify" viewBox="0 0 360.75 287.999989" height="384" preserveAspectRatio="xMidYMid meet" version="1.0"><defs><g/><clipPath id="6293dbfff0"><path d="M 103.609375 123.671875 L 254.257812 123.671875 L 254.257812 151.402344 L 103.609375 151.402344 Z M 103.609375 123.671875 " clip-rule="nonzero"/></clipPath><clipPath id="9bf18c129c"><path d="M 247.277344 119.402344 L 251.574219 119.402344 L 251.574219 123.007812 L 247.277344 123.007812 Z M 247.277344 119.402344 " clip-rule="nonzero"/></clipPath><clipPath id="7916c2dc8f"><path d="M 251.5625 120.6875 C 249.613281 123.683594 247.886719 123.160156 247.4375 122.484375 C 247.0625 121.886719 247.4375 120.011719 248.039062 119.5625 C 248.5625 119.113281 250.960938 119.789062 250.960938 119.789062 " clip-rule="nonzero"/></clipPath><clipPath id="f57cee5180"><path d="M 243.273438 116.96875 L 259.441406 116.96875 L 259.441406 124.433594 L 243.273438 124.433594 Z M 243.273438 116.96875 " clip-rule="nonzero"/></clipPath><clipPath id="1c555b25a6"><path d="M 256.507812 121.734375 C 243.691406 121.4375 243.242188 120.238281 243.316406 119.488281 C 243.390625 118.738281 244.214844 117.761719 245.191406 117.390625 C 246.839844 116.789062 251.785156 117.613281 253.507812 118.589844 C 254.484375 119.113281 255.160156 120.011719 255.308594 120.6875 C 255.457031 121.285156 255.160156 121.960938 254.859375 122.410156 C 254.558594 122.859375 254.109375 123.160156 253.359375 123.382812 C 251.859375 123.835938 246.765625 124.132812 245.488281 123.234375 C 244.816406 122.785156 244.589844 121.734375 244.589844 121.0625 C 244.664062 120.386719 245.039062 119.488281 245.863281 119.113281 C 247.8125 118.0625 255.683594 118.4375 257.707031 119.414062 C 258.605469 119.789062 259.128906 120.386719 259.355469 121.0625 C 259.503906 121.734375 259.28125 122.859375 258.832031 123.382812 C 258.382812 123.910156 257.332031 124.359375 256.65625 124.285156 C 255.984375 124.210938 255.007812 123.535156 254.707031 122.933594 C 254.410156 122.335938 254.410156 121.210938 254.707031 120.613281 C 255.007812 119.9375 255.984375 119.261719 256.65625 119.261719 C 257.480469 119.261719 258.90625 120.085938 259.28125 120.835938 C 259.582031 121.4375 259.355469 122.558594 258.980469 123.160156 C 258.753906 123.609375 258.382812 123.910156 257.707031 124.132812 C 256.433594 124.582031 253.210938 124.359375 251.109375 124.210938 C 249.164062 124.058594 246.539062 124.132812 245.488281 123.234375 C 244.816406 122.558594 244.441406 121.210938 244.742188 120.460938 C 245.039062 119.636719 246.390625 118.8125 247.589844 118.4375 C 249.238281 117.988281 252.761719 118.0625 254.035156 118.8125 C 254.785156 119.1875 255.234375 120.011719 255.308594 120.6875 C 255.382812 121.359375 255.082031 122.410156 254.410156 122.859375 C 253.433594 123.535156 250.285156 123.160156 248.5625 122.933594 C 247.0625 122.785156 245.488281 122.484375 244.589844 121.960938 C 244.066406 121.585938 243.691406 121.136719 243.464844 120.613281 C 243.242188 120.160156 243.242188 119.414062 243.464844 118.886719 C 243.691406 118.4375 243.992188 117.914062 244.589844 117.613281 C 245.941406 116.9375 249.613281 117.015625 252.011719 117.015625 C 254.109375 117.015625 257.03125 116.789062 258.082031 117.613281 C 258.753906 118.214844 258.980469 119.488281 258.679688 120.238281 C 258.457031 120.910156 256.507812 121.734375 256.507812 121.734375 " clip-rule="nonzero"/></clipPath></defs><g fill="#f4f4f4" fill-opacity="1"><g transform="translate(180.588911, 185.821008)"><g><path d="M 7.644531 0 L 81.542969 0 L 82.742188 -19.9375 L 81.09375 -20.234375 C 75.699219 -6.296875 66.554688 -2.25 52.164062 -2.25 L 32.675781 -2.25 C 28.332031 -2.25 25.933594 -4.648438 25.933594 -8.992188 L 25.933594 -55.011719 L 45.117188 -55.011719 C 62.207031 -55.011719 66.554688 -51.5625 68.351562 -44.820312 L 70.152344 -44.820312 L 70.152344 -67.453125 L 68.351562 -67.453125 C 66.554688 -60.707031 62.207031 -57.261719 45.117188 -57.261719 L 25.933594 -57.261719 L 25.933594 -102.679688 L 47.964844 -102.679688 C 63.257812 -102.679688 72.101562 -98.183594 77.347656 -84.992188 L 78.996094 -85.441406 L 77.347656 -104.925781 L 7.644531 -104.925781 L 7.644531 -102.980469 C 12.140625 -101.628906 13.640625 -98.183594 13.640625 -85.890625 L 13.640625 -19.035156 C 13.640625 -6.746094 12.140625 -3.296875 7.644531 -1.949219 Z M 7.644531 0 "/></g></g></g><g fill="#f4f4f4" fill-opacity="1"><g transform="translate(91.228186, 185.821008)"><g><path d="M -2.546875 0 L 14.390625 0 L 14.390625 -1.949219 C 9.292969 -2.996094 8.695312 -7.945312 12.589844 -17.6875 L 21.433594 -39.574219 L 63.707031 -39.574219 L 72.847656 -17.539062 C 77.644531 -6.296875 78.84375 -3.296875 74.199219 -1.949219 L 74.199219 0 L 97.433594 0 L 97.433594 -1.949219 C 94.285156 -3.296875 90.6875 -6.296875 86.039062 -17.539062 L 49.164062 -106.125 L 37.921875 -101.03125 L 39.273438 -97.882812 C 40.472656 -95.484375 40.621094 -93.535156 39.574219 -90.835938 L 10.042969 -17.6875 C 5.394531 -6.296875 1.648438 -3.296875 -2.546875 -1.949219 Z M 22.335938 -41.820312 L 42.269531 -91.136719 L 62.804688 -41.820312 Z M 22.335938 -41.820312 "/></g></g></g><g clip-path="url(#6293dbfff0)"><path fill="#121212" d="M 103.609375 151.402344 L 103.609375 123.671875 L 254.257812 123.671875 L 254.257812 151.402344 Z M 103.609375 151.402344 " fill-opacity="1" fill-rule="nonzero"/></g><g fill="#f4f4f4" fill-opacity="1"><g transform="translate(76.516682, 142.982218)"><g><path d="M -0.425781 0 L 1.921875 0 L 1.921875 -0.285156 C 1.234375 -0.445312 1.113281 -1.03125 1.660156 -2.386719 L 2.832031 -5.28125 L 8.234375 -5.28125 L 9.449219 -2.367188 C 10.015625 -1.03125 10.300781 -0.507812 9.632812 -0.285156 L 9.632812 0 L 13.316406 0 L 13.316406 -0.285156 C 12.851562 -0.507812 12.324219 -1.03125 11.757812 -2.367188 L 6.738281 -14.328125 L 4.753906 -13.4375 L 5.019531 -12.871094 C 5.199219 -12.503906 5.222656 -12.183594 5.058594 -11.777344 L 1.273438 -2.386719 C 0.726562 -1.03125 0.183594 -0.507812 -0.425781 -0.285156 Z M 2.953125 -5.605469 L 5.484375 -11.859375 L 8.09375 -5.605469 Z M 2.953125 -5.605469 "/></g></g></g><g fill="#f4f4f4" fill-opacity="1"><g transform="translate(92.706516, 142.982218)"><g><path d="M 0.949219 0 L 10.582031 0 L 10.746094 -2.550781 L 10.480469 -2.589844 C 9.671875 -0.851562 8.621094 -0.363281 6.578125 -0.363281 L 4.917969 -0.363281 C 4.269531 -0.363281 3.90625 -0.726562 3.90625 -1.375 L 3.90625 -11.59375 C 3.90625 -13.050781 4.046875 -13.660156 4.714844 -13.882812 L 4.714844 -14.164062 L 0.949219 -14.164062 L 0.949219 -13.882812 C 1.617188 -13.660156 1.761719 -13.050781 1.761719 -11.59375 L 1.761719 -2.570312 C 1.761719 -1.113281 1.617188 -0.507812 0.949219 -0.285156 Z M 0.949219 0 "/></g></g></g><g fill="#f4f4f4" fill-opacity="1"><g transform="translate(106.994173, 142.982218)"><g><path d="M 0.949219 0 L 4.714844 0 L 4.714844 -0.285156 C 4.046875 -0.507812 3.90625 -1.113281 3.90625 -2.570312 L 3.90625 -11.59375 C 3.90625 -13.050781 4.046875 -13.660156 4.714844 -13.882812 L 4.714844 -14.164062 L 0.949219 -14.164062 L 0.949219 -13.882812 C 1.617188 -13.660156 1.761719 -13.050781 1.761719 -11.59375 L 1.761719 -2.570312 C 1.761719 -1.113281 1.617188 -0.507812 0.949219 -0.285156 Z M 0.949219 0 "/></g></g></g><g fill="#f4f4f4" fill-opacity="1"><g transform="translate(115.838364, 142.982218)"><g/></g></g><g fill="#f4f4f4" fill-opacity="1"><g transform="translate(123.063685, 142.982218)"><g><path d="M 0.949219 0 L 4.714844 0 L 4.714844 -0.285156 C 4.046875 -0.507812 3.90625 -1.113281 3.90625 -2.570312 L 3.90625 -7.324219 L 10.949219 -7.324219 L 10.949219 -2.570312 C 10.949219 -1.113281 10.804688 -0.507812 10.136719 -0.285156 L 10.136719 0 L 13.902344 0 L 13.902344 -0.285156 C 13.234375 -0.507812 13.09375 -1.113281 13.09375 -2.570312 L 13.09375 -11.59375 C 13.09375 -13.050781 13.234375 -13.660156 13.902344 -13.882812 L 13.902344 -14.164062 L 10.136719 -14.164062 L 10.136719 -13.882812 C 10.804688 -13.660156 10.949219 -13.050781 10.949219 -11.59375 L 10.949219 -7.691406 L 3.90625 -7.691406 L 3.90625 -11.59375 C 3.90625 -13.050781 4.046875 -13.660156 4.714844 -13.882812 L 4.714844 -14.164062 L 0.949219 -14.164062 L 0.949219 -13.882812 C 1.617188 -13.660156 1.761719 -13.050781 1.761719 -11.59375 L 1.761719 -2.570312 C 1.761719 -1.113281 1.617188 -0.507812 0.949219 -0.285156 Z M 0.949219 0 "/></g></g></g><g fill="#f4f4f4" fill-opacity="1"><g transform="translate(141.094997, 142.982218)"><g><path d="M -0.425781 0 L 1.921875 0 L 1.921875 -0.285156 C 1.234375 -0.445312 1.113281 -1.03125 1.660156 -2.386719 L 2.832031 -5.28125 L 8.234375 -5.28125 L 9.449219 -2.367188 C 10.015625 -1.03125 10.300781 -0.507812 9.632812 -0.285156 L 9.632812 0 L 13.316406 0 L 13.316406 -0.285156 C 12.851562 -0.507812 12.324219 -1.03125 11.757812 -2.367188 L 6.738281 -14.328125 L 4.753906 -13.4375 L 5.019531 -12.871094 C 5.199219 -12.503906 5.222656 -12.183594 5.058594 -11.777344 L 1.273438 -2.386719 C 0.726562 -1.03125 0.183594 -0.507812 -0.425781 -0.285156 Z M 2.953125 -5.605469 L 5.484375 -11.859375 L 8.09375 -5.605469 Z M 2.953125 -5.605469 "/></g></g></g><g fill="#f4f4f4" fill-opacity="1"><g transform="translate(157.284834, 142.982218)"><g><path d="M 0.949219 0 L 6.457031 0 C 10.90625 0 13.78125 -2.976562 13.761719 -7.367188 C 13.738281 -10.339844 11.839844 -14.164062 6.011719 -14.164062 L 0.949219 -14.164062 L 0.949219 -13.882812 C 1.617188 -13.660156 1.761719 -13.050781 1.761719 -11.59375 L 1.761719 -2.570312 C 1.761719 -1.113281 1.617188 -0.507812 0.949219 -0.285156 Z M 3.90625 -1.800781 L 3.90625 -13.839844 L 4.714844 -13.839844 C 9.226562 -13.839844 11.371094 -10.523438 11.371094 -6.375 C 11.371094 -2.042969 9.570312 -0.324219 6.3125 -0.324219 L 5.222656 -0.324219 C 4.109375 -0.324219 3.90625 -0.851562 3.90625 -1.800781 Z M 3.90625 -1.800781 "/></g></g></g><g fill="#f4f4f4" fill-opacity="1"><g transform="translate(175.255442, 142.982218)"><g><path d="M 0.949219 0 L 4.714844 0 L 4.714844 -0.285156 C 4.046875 -0.507812 3.90625 -1.113281 3.90625 -2.570312 L 3.90625 -11.59375 C 3.90625 -13.050781 4.046875 -13.660156 4.714844 -13.882812 L 4.714844 -14.164062 L 0.949219 -14.164062 L 0.949219 -13.882812 C 1.617188 -13.660156 1.761719 -13.050781 1.761719 -11.59375 L 1.761719 -2.570312 C 1.761719 -1.113281 1.617188 -0.507812 0.949219 -0.285156 Z M 0.949219 0 "/></g></g></g><g fill="#f4f4f4" fill-opacity="1"><g transform="translate(184.099636, 142.982218)"><g/></g></g><g fill="#f4f4f4" fill-opacity="1"><g transform="translate(191.32496, 142.982218)"><g><path d="M 0.949219 0 L 11.191406 0 L 11.332031 -2.953125 L 11.070312 -2.996094 C 10.300781 -0.929688 8.902344 -0.324219 6.859375 -0.324219 L 4.917969 -0.324219 C 4.269531 -0.324219 3.90625 -0.6875 3.90625 -1.335938 L 3.90625 -7.445312 L 5.847656 -7.445312 C 8.316406 -7.445312 9.023438 -6.960938 9.347656 -5.910156 L 9.632812 -5.910156 L 9.632812 -9.308594 L 9.347656 -9.308594 C 9.023438 -8.257812 8.316406 -7.769531 5.847656 -7.769531 L 3.90625 -7.769531 L 3.90625 -13.839844 L 6.273438 -13.839844 C 8.539062 -13.839844 9.8125 -13.234375 10.625 -11.25 L 10.886719 -11.3125 L 10.664062 -14.164062 L 0.949219 -14.164062 L 0.949219 -13.882812 C 1.617188 -13.660156 1.761719 -13.050781 1.761719 -11.59375 L 1.761719 -2.570312 C 1.761719 -1.113281 1.617188 -0.507812 0.949219 -0.285156 Z M 0.949219 0 "/></g></g></g><g fill="#f4f4f4" fill-opacity="1"><g transform="translate(206.543478, 142.982218)"><g><path d="M 0.949219 0 L 10.582031 0 L 10.746094 -2.550781 L 10.480469 -2.589844 C 9.671875 -0.851562 8.621094 -0.363281 6.578125 -0.363281 L 4.917969 -0.363281 C 4.269531 -0.363281 3.90625 -0.726562 3.90625 -1.375 L 3.90625 -11.59375 C 3.90625 -13.050781 4.046875 -13.660156 4.714844 -13.882812 L 4.714844 -14.164062 L 0.949219 -14.164062 L 0.949219 -13.882812 C 1.617188 -13.660156 1.761719 -13.050781 1.761719 -11.59375 L 1.761719 -2.570312 C 1.761719 -1.113281 1.617188 -0.507812 0.949219 -0.285156 Z M 0.949219 0 "/></g></g></g><g fill="#f4f4f4" fill-opacity="1"><g transform="translate(220.831138, 142.982218)"><g><path d="M 8.902344 0.203125 C 11.371094 0.203125 12.910156 -0.285156 13.984375 -0.769531 L 14.308594 -3.664062 L 14.042969 -3.703125 C 13.316406 -1.597656 11.757812 -0.222656 9.492188 -0.222656 C 5.542969 -0.222656 3.238281 -3.84375 3.238281 -7.75 C 3.238281 -11.777344 5.523438 -13.921875 8.761719 -13.921875 C 10.847656 -13.921875 12.929688 -12.667969 13.761719 -10.582031 L 14.003906 -10.644531 L 13.921875 -13.316406 C 12.871094 -14.023438 10.785156 -14.308594 9.289062 -14.308594 C 4.332031 -14.308594 1.09375 -10.925781 1.09375 -6.839844 C 1.09375 -2.308594 4.066406 0.203125 8.902344 0.203125 Z M 8.902344 0.203125 "/></g></g></g><g fill="#f4f4f4" fill-opacity="1"><g transform="translate(239.20646, 142.982218)"><g><path d="M 0.949219 0 L 4.714844 0 L 4.714844 -0.285156 C 4.046875 -0.507812 3.90625 -1.113281 3.90625 -2.570312 L 3.90625 -7.324219 L 10.949219 -7.324219 L 10.949219 -2.570312 C 10.949219 -1.113281 10.804688 -0.507812 10.136719 -0.285156 L 10.136719 0 L 13.902344 0 L 13.902344 -0.285156 C 13.234375 -0.507812 13.09375 -1.113281 13.09375 -2.570312 L 13.09375 -11.59375 C 13.09375 -13.050781 13.234375 -13.660156 13.902344 -13.882812 L 13.902344 -14.164062 L 10.136719 -14.164062 L 10.136719 -13.882812 C 10.804688 -13.660156 10.949219 -13.050781 10.949219 -11.59375 L 10.949219 -7.691406 L 3.90625 -7.691406 L 3.90625 -11.59375 C 3.90625 -13.050781 4.046875 -13.660156 4.714844 -13.882812 L 4.714844 -14.164062 L 0.949219 -14.164062 L 0.949219 -13.882812 C 1.617188 -13.660156 1.761719 -13.050781 1.761719 -11.59375 L 1.761719 -2.570312 C 1.761719 -1.113281 1.617188 -0.507812 0.949219 -0.285156 Z M 0.949219 0 "/></g></g></g><g fill="#f4f4f4" fill-opacity="1"><g transform="translate(257.237772, 142.982218)"><g><path d="M -0.425781 0 L 1.921875 0 L 1.921875 -0.285156 C 1.234375 -0.445312 1.113281 -1.03125 1.660156 -2.386719 L 2.832031 -5.28125 L 8.234375 -5.28125 L 9.449219 -2.367188 C 10.015625 -1.03125 10.300781 -0.507812 9.632812 -0.285156 L 9.632812 0 L 13.316406 0 L 13.316406 -0.285156 C 12.851562 -0.507812 12.324219 -1.03125 11.757812 -2.367188 L 6.738281 -14.328125 L 4.753906 -13.4375 L 5.019531 -12.871094 C 5.199219 -12.503906 5.222656 -12.183594 5.058594 -11.777344 L 1.273438 -2.386719 C 0.726562 -1.03125 0.183594 -0.507812 -0.425781 -0.285156 Z M 2.953125 -5.605469 L 5.484375 -11.859375 L 8.09375 -5.605469 Z M 2.953125 -5.605469 "/></g></g></g><g fill="#f4f4f4" fill-opacity="1"><g transform="translate(273.427609, 142.982218)"><g><path d="M 0.949219 0 L 5.34375 0 C 10.320312 0 12.160156 -2.386719 12.121094 -4.753906 C 12.101562 -6.777344 10.402344 -8.316406 7.0625 -8.417969 C 9.613281 -8.863281 10.480469 -10.117188 10.480469 -11.492188 C 10.480469 -13.132812 9.269531 -14.164062 5.949219 -14.164062 L 0.949219 -14.164062 L 0.949219 -13.882812 C 1.617188 -13.660156 1.761719 -13.050781 1.761719 -11.59375 L 1.761719 -2.570312 C 1.761719 -1.113281 1.617188 -0.507812 0.949219 -0.285156 Z M 3.90625 -2.085938 L 3.90625 -8.15625 L 5.34375 -8.15625 C 8.359375 -8.15625 9.714844 -6.433594 9.714844 -4.007812 C 9.714844 -1.863281 8.4375 -0.324219 5.523438 -0.324219 L 4.957031 -0.324219 C 4.085938 -0.324219 3.90625 -0.628906 3.90625 -2.085938 Z M 3.90625 -8.480469 L 3.90625 -13.839844 L 4.734375 -13.839844 C 6.800781 -13.839844 8.074219 -12.808594 8.074219 -11.027344 C 8.074219 -9.613281 7.183594 -8.480469 5.707031 -8.480469 Z M 3.90625 -8.480469 "/></g></g></g><g clip-path="url(#9bf18c129c)"><g clip-path="url(#7916c2dc8f)"><path fill="#121212" d="M 244.441406 116.566406 L 254.566406 116.566406 L 254.566406 126.382812 L 244.441406 126.382812 Z M 244.441406 116.566406 " fill-opacity="1" fill-rule="nonzero"/></g></g><g clip-path="url(#f57cee5180)"><g clip-path="url(#1c555b25a6)"><path fill="#121212" d="M 240.320312 114.015625 L 262.34375 114.015625 L 262.34375 127.28125 L 240.320312 127.28125 Z M 240.320312 114.015625 " fill-opacity="1" fill-rule="nonzero"/></g></g></svg>